<svg xmlns="http://www.w3.org/2000/svg" width="192" height="192" viewBox="0 0 192 192">
  <rect width="192" height="192" rx="40" fill="#F9FAFB"/>
  <rect x="4" y="4" width="184" height="184" rx="38" fill="url(#bg)"/>
  <defs>
    <linearGradient id="bg" x1="0" y1="0" x2="192" y2="192" gradientUnits="userSpaceOnUse">
      <stop offset="0%" stop-color="#4F46E5"/>
      <stop offset="100%" stop-color="#6366F1"/>
    </linearGradient>
  </defs>
  <!-- Heart shape -->
  <path d="M96 148c-3.2 0-6.2-1.2-8.5-3.4C72.8 130.8 44 106.4 44 78c0-17.6 14.4-32 32-32 10.4 0 16.8 4.8 20 8.8C99.2 50.8 105.6 46 116 46c17.6 0 32 14.4 32 32 0 28.4-28.8 52.8-43.5 66.6-2.3 2.2-5.3 3.4-8.5 3.4z" fill="white" opacity="0.95"/>
  <!-- Pulse line -->
  <path d="M52 92h24l8-20 12 40 12-40 8 20h24" fill="none" stroke="#4F46E5" stroke-width="5" stroke-linecap="round" stroke-linejoin="round"/>
</svg>
