<svg xmlns="http://www.w3.org/2000/svg" width="512" height="512" viewBox="0 0 512 512">
  <rect width="512" height="512" rx="96" fill="#F9FAFB"/>
  <rect x="8" y="8" width="496" height="496" rx="90" fill="url(#bg)"/>
  <defs>
    <linearGradient id="bg" x1="0" y1="0" x2="512" y2="512" gradientUnits="userSpaceOnUse">
      <stop offset="0%" stop-color="#4F46E5"/>
      <stop offset="100%" stop-color="#6366F1"/>
    </linearGradient>
  </defs>
  <!-- Heart shape -->
  <path d="M256 400c-8.5 0-16.5-3.2-22.6-9.1C192 352 120 288 120 210c0-46.8 38.4-85 85-85 27.6 0 41.6 12.8 51 23.4C265.4 137.8 279.4 125 307 125c46.6 0 85 38.2 85 85 0 78-72 142-115.4 180.9-6.1 5.9-14.1 9.1-22.6 9.1z" fill="white" opacity="0.95"/>
  <!-- Pulse line -->
  <path d="M140 248h64l20-52 32 104 32-104 20 52h64" fill="none" stroke="#4F46E5" stroke-width="12" stroke-linecap="round" stroke-linejoin="round"/>
</svg>
